<svg width="27" height="27" viewBox="0 0 27 27" fill="none" xmlns="http://www.w3.org/2000/svg">
<path fill-rule="evenodd" clip-rule="evenodd" d="M5.48438 3.9375V6.1875C5.48438 7.11951 6.23987 7.875 7.17188 7.875H8.69434C9.57971 7.875 10.3145 7.19083 10.3776 6.30771L10.5469 3.9375H16.4531L16.6224 6.30771C16.6855 7.19083 17.4203 7.875 18.3057 7.875H19.8281C20.7601 7.875 21.5156 7.11951 21.5156 6.1875V3.9375H22.0781C23.0101 3.9375 23.7656 4.69302 23.7656 5.625V23.3438C23.7656 24.5864 22.7582 25.5938 21.5156 25.5938H5.48438C4.24173 25.5938 3.23438 24.5864 3.23438 23.3438V5.625C3.23438 4.69302 3.9899 3.9375 4.92188 3.9375H5.48438ZM5.48438 9.5625H10.2656V13.2188H5.48438V9.5625ZM10.2656 14.3438H5.48438V18H10.2656V14.3438ZM5.48438 19.4062H10.2656V23.0625H5.48438V19.4062ZM15.8906 9.5625H11.1094V13.2188H15.8906V9.5625ZM11.1094 14.3438H15.8906V18H11.1094V14.3438ZM15.8906 19.4062H11.1094V23.0625H15.8906V19.4062ZM16.7344 9.5625H21.5156V13.2188H16.7344V9.5625ZM21.5156 14.3438H16.7344V18H21.5156V14.3438ZM16.7344 19.4062H21.5156V23.0625H16.7344V19.4062Z" fill="black"/>
<path d="M6.60938 2.8125C6.60938 2.03585 7.23898 1.40625 8.01562 1.40625C8.79227 1.40625 9.42188 2.03585 9.42188 2.8125V5.625C9.42188 6.40164 8.79227 7.03125 8.01562 7.03125C7.23898 7.03125 6.60938 6.40164 6.60938 5.625V2.8125Z" fill="black"/>
<path d="M17.8594 2.8125C17.8594 2.03585 18.489 1.40625 19.2656 1.40625C20.0423 1.40625 20.6719 2.03585 20.6719 2.8125V5.625C20.6719 6.40164 20.0423 7.03125 19.2656 7.03125C18.489 7.03125 17.8594 6.40164 17.8594 5.625V2.8125Z" fill="black"/>
</svg>
