<svg data-v-423bf9ae="" xmlns="http://www.w3.org/2000/svg" viewBox="0 0 593 90" class="iconLeftSlogan"><!----><!----><!----><g data-v-423bf9ae="" id="436e64e9-e8eb-48c6-bd29-ba5f603cc1e6" fill="#012F41" transform="matrix(5.736137123401251,0,0,5.736137123401251,103.748597257851,-17.78202405866606)"><path d="M2.61 13.33L1.57 13.33L1.57 13.33Q1.09 13.33 1.09 12.82L1.09 12.82L1.09 4.04L1.09 4.04Q1.09 3.53 1.57 3.53L1.57 3.53L6.98 3.53L6.98 3.53Q7.49 3.53 7.49 3.97L7.49 3.97L7.49 4.78L7.49 4.78Q7.49 5.22 6.98 5.22L6.98 5.22L3.09 5.22L3.09 7.60L6.42 7.60L6.42 7.60Q6.93 7.60 6.93 8.05L6.93 8.05L6.93 8.85L6.93 8.85Q6.93 9.30 6.42 9.30L6.42 9.30L3.09 9.30L3.09 12.82L3.09 12.82Q3.09 13.33 2.61 13.33L2.61 13.33ZM8.59 9.74L8.59 9.74L8.59 9.74Q8.59 8.00 9.48 7.01L9.48 7.01L9.48 7.01Q10.38 6.02 12.16 6.02L12.16 6.02L12.16 6.02Q13.94 6.02 14.84 7.01L14.84 7.01L14.84 7.01Q15.74 8.00 15.74 9.74L15.74 9.74L15.74 9.74Q15.74 11.48 14.84 12.48L14.84 12.48L14.84 12.48Q13.94 13.47 12.16 13.47L12.16 13.47L12.16 13.47Q10.38 13.47 9.48 12.48L9.48 12.48L9.48 12.48Q8.59 11.48 8.59 9.74ZM10.61 9.74L10.61 9.74L10.61 9.74Q10.61 11.04 11.01 11.58L11.01 11.58L11.01 11.58Q11.41 12.13 12.16 12.13L12.16 12.13L12.16 12.13Q12.91 12.13 13.31 11.58L13.31 11.58L13.31 11.58Q13.71 11.04 13.71 9.74L13.71 9.74L13.71 9.74Q13.71 8.44 13.31 7.90L13.31 7.90L13.31 7.90Q12.91 7.36 12.16 7.36L12.16 7.36L12.16 7.36Q11.41 7.36 11.01 7.90L11.01 7.90L11.01 7.90Q10.61 8.44 10.61 9.74ZM16.83 9.74L16.83 9.74L16.83 9.74Q16.83 8.00 17.73 7.01L17.73 7.01L17.73 7.01Q18.63 6.02 20.41 6.02L20.41 6.02L20.41 6.02Q22.18 6.02 23.08 7.01L23.08 7.01L23.08 7.01Q23.98 8.00 23.98 9.74L23.98 9.74L23.98 9.74Q23.98 11.48 23.08 12.48L23.08 12.48L23.08 12.48Q22.18 13.47 20.41 13.47L20.41 13.47L20.41 13.47Q18.63 13.47 17.73 12.48L17.73 12.48L17.73 12.48Q16.83 11.48 16.83 9.74ZM18.85 9.74L18.85 9.74L18.85 9.74Q18.85 11.04 19.25 11.58L19.25 11.58L19.25 11.58Q19.65 12.13 20.41 12.13L20.41 12.13L20.41 12.13Q21.16 12.13 21.56 11.58L21.56 11.58L21.56 11.58Q21.96 11.04 21.96 9.74L21.96 9.74L21.96 9.74Q21.96 8.44 21.56 7.90L21.56 7.90L21.56 7.90Q21.16 7.36 20.41 7.36L20.41 7.36L20.41 7.36Q19.65 7.36 19.25 7.90L19.25 7.90L19.25 7.90Q18.85 8.44 18.85 9.74ZM25.68 7.52L25.22 7.52L25.22 7.52Q24.81 7.52 24.81 7.18L24.81 7.18L24.81 6.49L24.81 6.49Q24.81 6.15 25.22 6.15L25.22 6.15L25.68 6.15L25.68 5.91L25.68 5.91Q25.68 5.61 25.83 5.35L25.83 5.35L26.35 4.43L26.35 4.43Q26.50 4.17 26.71 4.17L26.71 4.17L27.19 4.17L27.19 4.17Q27.60 4.17 27.60 4.58L27.60 4.58L27.60 6.15L28.70 6.15L28.70 6.15Q29.11 6.15 29.11 6.49L29.11 6.49L29.11 7.18L29.11 7.18Q29.11 7.52 28.70 7.52L28.70 7.52L27.60 7.52L27.60 10.91L27.60 10.91Q27.60 11.61 27.70 11.91L27.70 11.91L27.70 11.91Q27.79 12.22 28.21 12.22L28.21 12.22L28.21 12.22Q28.42 12.22 28.69 12.14L28.69 12.14L28.69 12.14Q28.96 12.07 29.11 12.00L29.11 12.00L29.11 12.00Q29.35 11.89 29.42 12.16L29.42 12.16L29.63 12.94L29.63 12.94Q29.69 13.17 29.45 13.28L29.45 13.28L29.45 13.28Q29.22 13.38 28.83 13.47L28.83 13.47L28.83 13.47Q28.44 13.56 28.04 13.56L28.04 13.56L28.04 13.56Q27.06 13.56 26.37 13.15L26.37 13.15L26.37 13.15Q25.68 12.75 25.68 11.49L25.68 11.49L25.68 7.52ZM32.40 13.33L31.32 13.33L31.32 13.33Q30.91 13.33 30.91 12.92L30.91 12.92L30.91 3.65L30.91 3.65Q30.91 3.24 31.32 3.24L31.32 3.24L32.42 3.24L32.42 3.24Q32.83 3.24 32.83 3.65L32.83 3.65L32.83 6.41L32.83 6.41Q32.83 6.69 32.80 6.96L32.80 6.96L32.83 6.96L32.83 6.96Q33.18 6.37 33.62 6.19L33.62 6.19L33.62 6.19Q34.06 6.02 34.67 6.02L34.67 6.02L34.67 6.02Q36.28 6.02 36.93 7.13L36.93 7.13L36.93 7.13Q37.58 8.24 37.58 9.74L37.58 9.74L37.58 9.74Q37.58 11.25 36.93 12.36L36.93 12.36L36.93 12.36Q36.28 13.47 34.67 13.47L34.67 13.47L34.67 13.47Q34.06 13.47 33.62 13.29L33.62 13.29L33.62 13.29Q33.18 13.11 32.83 12.52L32.83 12.52L32.80 12.52L32.77 12.92L32.77 12.92Q32.74 13.33 32.40 13.33L32.40 13.33ZM32.83 9.43L32.83 10.05L32.83 10.05Q32.83 10.97 33.19 11.55L33.19 11.55L33.19 11.55Q33.56 12.13 34.07 12.13L34.07 12.13L34.07 12.13Q34.99 12.13 35.28 11.48L35.28 11.48L35.28 11.48Q35.56 10.83 35.56 9.74L35.56 9.74L35.56 9.74Q35.56 8.65 35.28 8.00L35.28 8.00L35.28 8.00Q34.99 7.36 34.07 7.36L34.07 7.36L34.07 7.36Q33.56 7.36 33.19 7.93L33.19 7.93L33.19 7.93Q32.83 8.51 32.83 9.43L32.83 9.43ZM38.68 11.42L38.68 11.42L38.68 11.42Q38.68 10.05 39.98 9.43L39.98 9.43L39.98 9.43Q41.29 8.82 42.96 8.78L42.96 8.78L42.96 8.50L42.96 8.50Q42.96 7.88 42.65 7.62L42.65 7.62L42.65 7.62Q42.33 7.36 41.77 7.36L41.77 7.36L41.77 7.36Q41.38 7.36 41.07 7.47L41.07 7.47L41.07 7.47Q40.77 7.58 40.55 7.73L40.55 7.73L40.55 7.73Q40.33 7.88 40.15 8.03L40.15 8.03L40.15 8.03Q39.83 8.30 39.63 8.05L39.63 8.05L39.06 7.36L39.06 7.36Q38.85 7.10 39.16 6.82L39.16 6.82L39.16 6.82Q39.40 6.61 39.72 6.45L39.72 6.45L39.72 6.45Q40.04 6.30 40.56 6.16L40.56 6.16L40.56 6.16Q41.09 6.02 41.93 6.02L41.93 6.02L41.93 6.02Q43.35 6.02 44.12 6.67L44.12 6.67L44.12 6.67Q44.88 7.33 44.88 8.61L44.88 8.61L44.88 12.92L44.88 12.92Q44.88 13.33 44.47 13.33L44.47 13.33L43.35 13.33L43.35 13.33Q42.98 13.33 42.98 12.92L42.98 12.92L42.98 12.71L42.96 12.71L42.96 12.71Q42.56 13.10 42.00 13.29L42.00 13.29L42.00 13.29Q41.43 13.47 40.96 13.47L40.96 13.47L40.96 13.47Q39.84 13.47 39.26 12.92L39.26 12.92L39.26 12.92Q38.68 12.37 38.68 11.42ZM40.70 11.38L40.70 11.38L40.70 11.38Q40.70 11.61 40.80 11.79L40.80 11.79L40.80 11.79Q40.89 11.96 41.10 12.04L41.10 12.04L41.10 12.04Q41.30 12.13 41.56 12.13L41.56 12.13L41.56 12.13Q41.90 12.13 42.23 12.03L42.23 12.03L42.23 12.03Q42.56 11.94 42.96 11.58L42.96 11.58L42.96 10.10L42.96 10.10Q41.82 10.23 41.43 10.43L41.43 10.43L41.43 10.43Q41.04 10.64 40.87 10.86L40.87 10.86L40.87 10.86Q40.70 11.07 40.70 11.38ZM48.24 13.33L47.15 13.33L47.15 13.33Q46.74 13.33 46.74 12.92L46.74 12.92L46.74 4.85L46.74 4.85Q46.74 4.54 46.88 4.29L46.88 4.29L47.41 3.36L47.41 3.36Q47.56 3.10 47.76 3.10L47.76 3.10L48.24 3.10L48.24 3.10Q48.65 3.10 48.65 3.51L48.65 3.51L48.65 12.92L48.65 12.92Q48.65 13.33 48.24 13.33L48.24 13.33ZM52.01 13.33L50.92 13.33L50.92 13.33Q50.51 13.33 50.51 12.92L50.51 12.92L50.51 4.85L50.51 4.85Q50.51 4.54 50.65 4.29L50.65 4.29L51.18 3.36L51.18 3.36Q51.33 3.10 51.54 3.10L51.54 3.10L52.01 3.10L52.01 3.10Q52.42 3.10 52.42 3.51L52.42 3.51L52.42 12.92L52.42 12.92Q52.42 13.33 52.01 13.33L52.01 13.33ZM59.84 13.33L58.75 13.33L58.75 13.33Q58.26 13.33 58.43 12.88L58.43 12.88L61.78 4.08L61.78 4.08Q62.00 3.53 62.43 3.53L62.43 3.53L63.38 3.53L63.38 3.53Q63.81 3.53 64.03 4.08L64.03 4.08L67.38 12.88L67.38 12.88Q67.55 13.33 67.05 13.33L67.05 13.33L65.97 13.33L65.97 13.33Q65.52 13.33 65.34 12.86L65.34 12.86L64.64 11.02L61.17 11.02L60.47 12.86L60.47 12.86Q60.29 13.33 59.84 13.33L59.84 13.33ZM62.64 7.15L61.80 9.32L64.00 9.32L63.16 7.15L63.16 7.15Q63.01 6.77 62.98 6.59L62.98 6.59L62.98 6.59Q62.95 6.42 62.92 6.08L62.92 6.08L62.89 6.08L62.89 6.08Q62.86 6.42 62.83 6.59L62.83 6.59L62.83 6.59Q62.79 6.77 62.64 7.15L62.64 7.15ZM70.28 13.33L69.24 13.33L69.24 13.33Q68.76 13.33 68.76 12.82L68.76 12.82L68.76 4.04L68.76 4.04Q68.76 3.53 69.24 3.53L69.24 3.53L71.80 3.53L71.80 3.53Q74.26 3.53 75.21 4.33L75.21 4.33L75.21 4.33Q76.17 5.13 76.17 6.60L76.17 6.60L76.17 6.60Q76.17 8.07 75.21 8.87L75.21 8.87L75.21 8.87Q74.26 9.67 71.80 9.67L71.80 9.67L70.76 9.67L70.76 12.82L70.76 12.82Q70.76 13.33 70.28 13.33L70.28 13.33ZM70.76 5.20L70.76 8.00L71.79 8.00L71.79 8.00Q73.16 8.00 73.65 7.67L73.65 7.67L73.65 7.67Q74.14 7.35 74.14 6.60L74.14 6.60L74.14 6.60Q74.14 5.84 73.65 5.52L73.65 5.52L73.65 5.52Q73.16 5.20 71.79 5.20L71.79 5.20L70.76 5.20ZM79.36 13.33L78.32 13.33L78.32 13.33Q77.84 13.33 77.84 12.82L77.84 12.82L77.84 4.04L77.84 4.04Q77.84 3.53 78.32 3.53L78.32 3.53L80.88 3.53L80.88 3.53Q83.34 3.53 84.29 4.33L84.29 4.33L84.29 4.33Q85.24 5.13 85.24 6.60L85.24 6.60L85.24 6.60Q85.24 8.07 84.29 8.87L84.29 8.87L84.29 8.87Q83.34 9.67 80.88 9.67L80.88 9.67L79.84 9.67L79.84 12.82L79.84 12.82Q79.84 13.33 79.36 13.33L79.36 13.33ZM79.84 5.20L79.84 8.00L80.87 8.00L80.87 8.00Q82.24 8.00 82.73 7.67L82.73 7.67L82.73 7.67Q83.22 7.35 83.22 6.60L83.22 6.60L83.22 6.60Q83.22 5.84 82.73 5.52L82.73 5.52L82.73 5.52Q82.24 5.20 80.87 5.20L80.87 5.20L79.84 5.20Z"></path></g><defs data-v-423bf9ae=""><linearGradient data-v-423bf9ae="" gradientTransform="rotate(25)" id="e76db79a-14d6-4e7a-8054-14e1f9fef221" x1="0%" y1="0%" x2="100%" y2="0%"><stop data-v-423bf9ae="" offset="0%" style="stop-color: rgb(8, 199, 214); stop-opacity: 1;"></stop><stop data-v-423bf9ae="" offset="100%" style="stop-color: rgb(2, 2, 62); stop-opacity: 1;"></stop></linearGradient></defs><g data-v-423bf9ae="" id="c1d8a303-88bd-4ec8-b70a-043c8650a7f5" transform="matrix(1.0013036109803464,0,0,1.0013036109803464,-5.00707763794459,-5.006594356305072)" stroke="none" fill="url(#e76db79a-14d6-4e7a-8054-14e1f9fef221)"><path clip-rule="evenodd" d="M75.719 83.895c.312-.315.564-.65.657-.975.183-.563-.353-1.429-.48-1.646-.145-.248-.302-.459-.426-.726-.225-.487-.276-.996-.084-1.507.369-.981 1.295-1.554 2.237-1.896.731-.264 1.495-.509 2.198-.839 1.174-.551 2.361-1.582 3.183-2.576 1.868-2.26 3.361-4.977 4.591-7.633.661-1.427 1.266-2.895 1.657-4.421.43-1.679.47-3.601.26-5.32-.199-1.631-.453-3.481-1.019-5.022-.492-1.339-1.41-1.993-2.873-1.731-.868.155-1.726.358-2.59.529-.83.165-1.689.299-2.5.541-1.339.4-2.185 1.28-2.793 2.509-.698 1.411-1.319 2.859-2.056 4.251a206.316 206.316 0 0 1-2.222 4.05c-.744 1.332-1.573 2.614-2.288 3.962-.344.65-.618 1.291-.66 2.035-.047.827.187 1.551.438 2.328.517 1.609 1.02 3.223 1.467 4.854.212.773.366 1.601.668 2.342.147.36.404.735.596 1.078.587 1.052.825 2.093.112 3.175-.801 1.214-2.138 1.704-3.311 2.436-1.431.892-2.795 1.887-4.243 2.753a54.504 54.504 0 0 1-4.638 2.475c-1.213.574-3.143 1.191-3.827 2.423-.103.185-.128.663-.144.875a6.56 6.56 0 0 1-.104.849c-.212 1.015-1.636 1.401-2.457 1.563a1.964 1.964 0 0 1-.102.03c-.889.235-2.085.274-3.222.28-2.389.013-4.31-.343-6.527-.448-.996-.048-2.11-.115-3.194-.308a35.563 35.563 0 0 1-5.547-1.429c-.937-.322-1.79-.606-2.325-1.149-.56-.567-.264-1.536.476-1.764.557-.172 1.672.329 2.157.476 2.106.639 4.026 1.157 6.471 1.569 1.45.244 2.95.616 4.762.616.957 0 1.817-.028 2.549-.14.827-.126 1.612-.626 1.821-1.429.165-.632-.542-1.222-1.008-1.625-.463-.4-.987-.607-1.513-.84a41.664 41.664 0 0 1-6.107-3.306c-.998-.651-2.053-1.221-3.137-1.569-1.221-.392-2.699-.346-4.258-.448-2.802-.184-5.692-.633-8.152-1.261-.62-.158-1.441-.374-2.017-.112-.721.328-1.37 1.162-.924 2.045.223.441.658.889 1.037 1.317.266.3 1.026 1.016.924 1.541-.112.574-.644 1.199-1.345 1.12-.469-.052-1.11-.476-1.569-.756-3.348-2.05-5.983-4.762-8.46-7.676-5.592-6.576-9.709-14.927-10.645-26.22-.244-2.943-.214-5.999.14-8.74.35-2.714.946-5.269 1.653-7.564 2.885-9.357 8.178-16.323 14.987-21.906 4.974-4.078 11.115-7.341 18.769-8.88 2.636-.53 5.463-.817 8.32-.953 6.838-.326 12.914 1.226 17.732 3.138 5.067 2.011 9.211 4.728 12.886 7.956 3.666 3.22 6.906 7.051 9.468 11.401.643 1.091 1.221 2.188 1.737 3.474.269.67.476 1.323.308 2.129-.283 1.359-1.322 2.228-1.373 3.838-.035 1.122.239 2.407.364 3.558.043.397.048.825.14 1.149.201.703.909.976 1.345 1.26.101.066.202.209.308.224.214.031.358-.121.504-.14.503-.066 1.058.278 1.344.532.489.435.676.852.785 1.709.166 1.314.308 2.991.308 4.678.001 6.564-1.351 12.118-3.165 16.78-2.818 7.244-7.156 12.603-12.606 17.312-3.078 2.66-6.655 4.954-10.701 6.751-.544.241-1.339.647-1.821.672-.6.032-1.106-.443-1.064-1.12.034-.562.661-1.022 1.12-1.261.565-.293 1.127-.52 1.597-.756 2.228-1.12 4.025-2.077 5.995-3.474.465-.327.971-.664 1.426-1.017zm-5.428-68.988c.025.377.569.863.84 1.177 1.244 1.435 2.56 2.867 4.174 3.894.875.556 1.528 1.044 2.521 1.513.409.193 1.102.501 1.597.364.349-.097.743-.653.728-1.008-.015-.37-.519-.845-.812-1.149-1.713-1.778-3.389-3.056-5.379-4.426-.685-.472-1.562-1.153-2.436-1.35-.198-.045-.402-.061-.558.002-.281.113-.704.532-.675.983zm-31.987-3.162c-.065-.487-.707-.754-1.139-.733-1.267.063-2.34.484-3.481.993-1.071.477-2.107 1.021-3.141 1.571-4.079 2.17-7.533 4.706-10.608 8.164-1.099 1.236-2.221 2.503-3.114 3.9-.211.33-.506.853-.439 1.26.069.419.814.95 1.195 1.074 1.029.334 2.259-.112 3.143-.648.992-.601 1.891-1.334 2.844-1.99 1.978-1.362 3.99-2.661 6.092-3.825.525-.291 1.07-.544 1.592-.838 1.463-.823 2.654-1.806 3.572-3.226.649-1.003 1.19-2.07 1.856-3.065.329-.491.679-.97 1.023-1.451.162-.221.595-.908.605-1.186zm10.449-.426c-1.061.076-2.216.145-3.25.398-1.759.431-2.838 1.588-3.909 2.952a50.024 50.024 0 0 0-1.598 2.149c-.482.687-1.04 1.433-1.373 2.204-.33.765-.244 1.5.176 2.208.426.72 1.026 1.319 1.625 1.896 1.306 1.258 2.641 2.483 3.872 3.817 1.039 1.126 2.361 2.717 3.862 3.185.503.157 1.157.133 1.797.089 1.121-.078 2.099-.05 3.219-.024 1.842.043 3.926.108 4.949.305 1.022.197 1.417 1.039 1.237 1.856-.313 1.421-2.466 1.124-3.579 1.167-1.206.046-6.267.759-7.125 1.487-.808.687-1.639 1.406-2.19 2.303-1.286 2.089-2.404 4.291-3.56 6.454-.866 1.619-1.815 3.231-2.445 4.961-.511 1.404-.945 2.783-2.355 3.536-.827.441-1.788.361-2.677.197-1.467-.27-2.986-.345-4.47-.495-1.527-.154-3.053-.316-4.582-.447-1.145-.098-3.188-.507-4.258-.152-.893.296-1.668 1.275-2.105 2.072-.596 1.087-1.055 2.248-1.529 3.391a40.823 40.823 0 0 0-1.318 3.624c-.384 1.246-.637 2.618-.347 3.911.264 1.176.892 2.236 1.46 3.285 1.149 2.123 2.368 4.196 3.781 6.156 1.338 1.857 2.816 3.554 5.037 4.351 1.239.444 2.661.681 3.956.916 1.442.262 2.892.473 4.352.606 1.075.098 2.904.288 3.867-.279 1.89-1.113 2.853-3.718 3.791-5.615.552-1.117 1.128-2.225 1.64-3.362.459-1.022.72-2.352.272-3.42-.449-1.068-.853-2.065-1.421-3.222-1.358-2.765-2.252-3.829-3.73-6.535-.403-.739-.738-1.238-.81-2.109-.107-1.301.981-1.585 1.951-.733.334.294.526.626.766 1.009.859 1.371 1.261 1.8 2.11 3.178 1.13 1.836 1.829 3.055 3.096 4.802.707.974 2.12 1.651 3.303 2.037 1.345.44 3.652.302 5.08.24 1.824-.08 3.652-.107 5.474-.224.898-.057 1.801-.092 2.696-.184.682-.07 1.45-.178 2.09-.431 1.176-.466 1.945-1.367 2.642-2.383.765-1.116 1.416-2.313 2.053-3.506a92.87 92.87 0 0 0 1.888-3.775c.61-1.282 1.243-2.544 1.735-3.879.246-.667.432-1.366.424-2.082a5.832 5.832 0 0 0-.416-2.079c-.505-1.268-1.225-2.465-1.908-3.643a135.75 135.75 0 0 0-2.116-3.564c-.698-1.125-1.404-2.302-2.237-3.332-.511-.632-1.138-1.159-1.677-1.767-.807-.91-2.41-1.245-2.689-1.732-.303-.529-.351-1.08-.133-1.632.223-.566 1.953-1.074 2.73-1.999.42-.501.829-1.029 1.194-1.572.77-1.143 1.378-2.386 2.03-3.598.606-1.127 1.489-2.381 1.132-3.729-.305-1.157-1.345-2.164-2.163-2.982-1.877-1.877-3.874-3.635-6.184-4.964a10.39 10.39 0 0 0-3.991-1.322c-1.779-.204-3.676-.221-5.467-.136-1.223.058-2.451.078-3.675.166zm23.676 13.479c-.97 1.525-1.77 3.163-2.67 4.73-.44.765-.834 1.631-.786 2.534.055 1.042.737 2.064 1.328 2.888 2.082 2.901 3.861 5.977 5.573 9.107.258.471.502.979.828 1.407.561.736 1.276 1.592 2.242 1.753.58.096 1.281-.05 1.856-.163 1.338-.265 2.667-.572 4.004-.84 1.42-.285 2.616-.91 2.775-2.482.133-1.312-.063-2.723-.196-4.032a34.806 34.806 0 0 0-.574-3.775c-.405-1.891-1.025-4.626-2.261-6.109-1.943-2.331-4.612-4.212-7.151-5.855-.876-.567-1.684-1.114-2.783-.991-.203.023-.433.082-.604.198a5.71 5.71 0 0 0-1.581 1.63zm-58.483 7.118c-.816.456-1.416 1.474-1.809 2.292a34.302 34.302 0 0 0-3.172 10.94 40.799 40.799 0 0 0-.055 8.947c.122 1.189.279 2.623.771 3.72.375.837.982 1.739 1.846 2.126.833.373 1.504-.578 1.812-1.221.42-.877.684-1.839 1.04-2.746a51.328 51.328 0 0 1 2.478-5.382c.438-.822.857-1.587.941-2.536.095-1.079-.176-2.213-.331-3.278-.35-2.405-.424-4.856-.54-7.281-.028-.579-.001-1.163.021-1.741.025-.676.089-1.815-.159-2.444-.312-.79-1.379-1.641-2.266-1.546-.18.019-.417.061-.577.15zm-2.857 32.958c-.038.237.156.782.239 1.006.149.404.314.794.486 1.187 2.006 4.597 4.815 8.527 8.196 12.205.249.271 1.038 1.12 1.445 1.102.191-.008.553-.424.576-.604.024-.207-.213-.714-.297-.902-.484-1.081-1.311-2.034-1.992-2.995a69.52 69.52 0 0 1-4.055-6.437c-.413-.745-.773-1.519-1.198-2.257-.377-.655-.866-1.257-1.376-1.812-.222-.242-1.045-1.122-1.422-1.056-.181.033-.571.369-.602.563z"></path></g><!----><g data-v-423bf9ae="" id="1cdc7540-5471-47a0-8f67-0f6a044d1325" fill="#012F41" transform="matrix(1.8654013812505792,0,0,1.8654013812505792,109.62790466009628,56.08265630967189)"><path d="M7.71 2.21L0.20 2.21L0.20 3.22L3.43 3.22L3.43 11.48L4.48 11.48L4.48 3.22L7.71 3.22ZM22.48 2.21L22.48 6.33L17.09 6.33L17.09 2.21L16.04 2.21L16.04 11.48L17.09 11.48L17.09 7.35L22.48 7.35L22.48 11.48L23.53 11.48L23.53 2.21ZM39.62 3.22L39.62 2.21L32.80 2.21L32.80 11.48L39.62 11.48L39.62 10.47L33.85 10.47L33.85 7.35L39.00 7.35L39.00 6.33L33.85 6.33L33.85 3.22ZM64.13 6.75C64.79 6.45 65.38 5.85 65.38 4.66C65.38 3.54 64.64 2.21 62.45 2.21L58.30 2.21L58.30 11.48L62.69 11.48C64.81 11.48 65.86 10.43 65.86 9.04C65.86 7.66 64.92 7 64.13 6.75ZM59.35 3.21L62.57 3.21C63.84 3.21 64.33 3.98 64.33 4.75C64.33 5.88 63.42 6.36 62.45 6.36L59.35 6.36ZM62.80 10.49L59.35 10.49L59.35 7.31L62.69 7.31C64.16 7.31 64.81 8.09 64.81 8.96C64.81 9.93 64.08 10.49 62.80 10.49ZM81.38 3.22L81.38 2.21L74.56 2.21L74.56 11.48L81.38 11.48L81.38 10.47L75.61 10.47L75.61 7.35L80.77 7.35L80.77 6.33L75.61 6.33L75.61 3.22ZM90.58 4.65C90.58 4.03 90.94 3.08 93.04 3.08C94.74 3.08 95.52 3.82 95.63 4.75L96.71 4.75C96.63 3.36 95.51 2.10 93.04 2.10C90.72 2.10 89.56 3.15 89.56 4.66C89.56 7.84 95.90 6.69 95.90 8.96C95.90 10.05 94.92 10.60 93.35 10.60C91.74 10.60 90.44 10.05 90.37 8.71L89.28 8.71C89.42 10.37 90.54 11.59 93.28 11.59C95.56 11.59 96.95 10.64 96.95 8.92C96.95 5.68 90.58 6.80 90.58 4.65ZM112.15 2.21L104.64 2.21L104.64 3.22L107.87 3.22L107.87 11.48L108.92 11.48L108.92 3.22L112.15 3.22ZM131.08 4.65C131.08 4.03 131.45 3.08 133.55 3.08C135.24 3.08 136.02 3.82 136.14 4.75L137.21 4.75C137.13 3.36 136.01 2.10 133.55 2.10C131.22 2.10 130.06 3.15 130.06 4.66C130.06 7.84 136.40 6.69 136.40 8.96C136.40 10.05 135.42 10.60 133.85 10.60C132.24 10.60 130.94 10.05 130.87 8.71L129.78 8.71C129.92 10.37 131.04 11.59 133.78 11.59C136.07 11.59 137.45 10.64 137.45 8.92C137.45 5.68 131.08 6.80 131.08 4.65ZM152.66 2.21L145.14 2.21L145.14 3.22L148.37 3.22L148.37 11.48L149.42 11.48L149.42 3.22L152.66 3.22ZM164.32 2.21L163.00 2.21L159.07 11.48L160.23 11.48L161.36 8.79L165.96 8.79L167.09 11.48L168.25 11.48ZM161.77 7.83L163.66 3.30L165.55 7.83ZM182.18 2.21L174.66 2.21L174.66 3.22L177.90 3.22L177.90 11.48L178.95 11.48L178.95 3.22L182.18 3.22ZM191.13 4.65C191.13 4.03 191.49 3.08 193.59 3.08C195.29 3.08 196.07 3.82 196.18 4.75L197.26 4.75C197.18 3.36 196.06 2.10 193.59 2.10C191.27 2.10 190.11 3.15 190.11 4.66C190.11 7.84 196.45 6.69 196.45 8.96C196.45 10.05 195.47 10.60 193.90 10.60C192.29 10.60 190.99 10.05 190.92 8.71L189.83 8.71C189.97 10.37 191.09 11.59 193.83 11.59C196.11 11.59 197.50 10.64 197.50 8.92C197.50 5.68 191.13 6.80 191.13 4.65ZM205.86 10.05L205.86 11.48L207.21 11.48L207.21 10.05ZM206.92 8.92L207.19 2.21L205.88 2.21L206.15 8.92Z"></path></g></svg>